<?xml version="1.0" encoding="UTF-8"?>
<svg id="OBJECTS" xmlns="http://www.w3.org/2000/svg" viewBox="0 0 164 34">
  <defs>
    <style>
      .cls-1, .cls-2, .cls-3 {
        stroke: #1b3346;
        stroke-width: .15px;
      }

      .cls-1, .cls-2, .cls-4 {
        fill: #00c99e;
      }

      .cls-1, .cls-3 {
        stroke-miterlimit: 10;
      }

      .cls-2 {
        stroke-linecap: round;
        stroke-linejoin: round;
      }

      .cls-3, .cls-5 {
        fill: #8686e2;
      }

      .cls-4, .cls-5 {
        font-family: VintageBrushRegular, 'Vintage Brush';
        font-size: 15px;
      }

      .cls-6 {
        letter-spacing: -.02em;
      }
    </style>
  </defs>
  <g>
    <g>
      <path class="cls-1" d="M27.71,23.79c-1.06,1.58-2.55,2.79-4.26,3.61.36-.17.94-.05,1.33-.06.82-.02,1.55-.03,2.2-.57,1.42-1.21,2.63-2.66,4.09-3.81.31-.24.65-.48,1.04-.51.39-.03.83.24.85.63.26-.18.52-.36.82-.43.3-.07.66,0,.85.25.19.26.15.63.04.93-.25.72-.86,1.28-1.36,1.84-.57.64-1.18,1.25-1.78,1.87-1.3,1.37-2.79,2.36-4.34,3.41-2.32,1.57-4.52,2.33-7.28,1.43-1.05-.34-2.06-.82-3.02-1.35-.93-.52-1.75-1.22-2.63-1.8-.6-.39-1.07-1.02-1.51-1.58-.47-.6-.9-1.24-1.28-1.9-.77-1.32-1.35-2.74-1.74-4.21.2.74,1.86,1.73,2.47,2.13.98.65,2.04,1.17,3.16,1.55,1.07.36,2.19.6,3.32.68,1.35.1,2.18-.3,3.35-.95,1.01-.55,2.02-1.11,3.03-1.66.44-.24.88-.43,1.34-.62.25-.11.52-.22.79-.2.28.01.57.19.71.45.2.36.02.57-.18.87Z"/>
      <path class="cls-3" d="M17.75,8.4c.26.13.55.26.85.28.28.01.5.04.77.17.08.04.16.08.25.09.07,0,.13,0,.2,0,.65-.07,1.29.2,1.94.16.67-.04,2.47-.48,3.12-.64,2.29-.55,3.23-1.97,5.66-1.7,2.79.31,4.95,2.82,5.96,5.38.57,1.44.88,2.99.93,4.55.04,1.18.09,3.33-.58,4.35,3.46-5.26,3.74-14.03-2.13-17.6-2.15-1.31-4.87-1.74-7.23-.74-1.98.84-3.59,2.34-5.36,3.56-.73.51-1.5.97-2.32,1.32-.4.17-.81.32-1.23.42-.37.09-.82.08-1.16.22.11.07.22.14.35.2Z"/>
      <path class="cls-1" d="M24.85,8.54c-.66.25-1.34.44-2.05.51-1.33.12-2.69.03-3.99-.29-2.29-.55-4.38-2.3-6.81-2.03-2.79.31-4.95,2.82-5.96,5.38-.57,1.44-.88,2.99-.93,4.55-.04,1.18-.09,3.33.58,4.35C2.23,15.75,1.95,6.98,7.82,3.41c2.15-1.31,4.87-1.74,7.23-.74,1.98.84,3.59,2.34,5.36,3.56.81.56,1.66,1.06,2.58,1.43.46.18.93.33,1.41.42.23.04.46.08.69.09.13,0,.5.06.61,0-.28.13-.57.26-.87.37Z"/>
      <path class="cls-3" d="M5.69,21.01c.06.11,1.49,2.15,3.81,4.46,2.34,2.33,5.62,4.64,7.92,5.84,0,0-4.1-4.36-6.5-7.8-2.93-4.2-4.89-8.26-4.65-11.95,0,0-.41.79-.73,2.09-.2.82-.35,1.89-.43,2.91-.12,1.6-.02,3.33.58,4.44Z"/>
    </g>
    <path class="cls-2" d="M26.15,14.98h-2.21v-2.21c0-.9-.73-1.63-1.63-1.63s-1.63.73-1.63,1.63v2.21h-2.21c-.9,0-1.63.73-1.63,1.63s.73,1.63,1.63,1.63h2.21v2.21c0,.9.73,1.63,1.63,1.63s1.63-.73,1.63-1.63v-2.21h2.21c.9,0,1.63-.73,1.63-1.63s-.73-1.63-1.63-1.63Z"/>
  </g>
  <text class="cls-4" transform="translate(42.38 21.14)"><tspan x="0" y="0">Wellness</tspan></text>
  <text class="cls-5" transform="translate(102.3 21.14)"><tspan class="cls-6" x="0" y="0">W</tspan><tspan x="19.17" y="0">onders</tspan></text>
</svg>