<?xml version="1.0" encoding="UTF-8"?>
<svg id="OBJECTS" xmlns="http://www.w3.org/2000/svg" viewBox="0 0 492.42 102.09">
  <defs>
    <style>
      .cls-1, .cls-2, .cls-3 {
        stroke: #1b3346;
        stroke-width: .15px;
      }

      .cls-1, .cls-2, .cls-4 {
        fill: #00c99e;
      }

      .cls-1, .cls-3 {
        stroke-miterlimit: 10;
      }

      .cls-2 {
        stroke-linecap: round;
        stroke-linejoin: round;
      }

      .cls-5 {
        letter-spacing: -.02em;
      }

      .cls-3, .cls-6 {
        fill: #8686e2;
      }

      .cls-6, .cls-4 {
        font-family: VintageBrushRegular, 'Vintage Brush';
        font-size: 45.06px;
      }
    </style>
  </defs>
  <g>
    <g>
      <path class="cls-1" d="M80.78,70.23c-3.18,4.75-7.67,8.38-12.8,10.83,1.07-.51,2.82-.15,3.99-.17,2.45-.05,4.65-.08,6.6-1.72,4.28-3.62,7.9-7.98,12.3-11.45.93-.73,1.96-1.45,3.14-1.54,1.18-.09,2.5.72,2.55,1.9.77-.54,1.56-1.09,2.48-1.31.92-.21,1.99,0,2.55.75.58.78.45,1.88.12,2.8-.76,2.18-2.58,3.86-4.09,5.54-1.72,1.93-3.56,3.75-5.34,5.62-3.91,4.1-8.38,7.08-13.05,10.25-6.97,4.73-13.59,7-21.87,4.29-3.16-1.03-6.18-2.45-9.07-4.07-2.78-1.56-5.25-3.66-7.91-5.41-1.8-1.18-3.2-3.05-4.53-4.75-1.41-1.81-2.7-3.71-3.86-5.7-2.31-3.96-4.06-8.23-5.24-12.65.59,2.24,5.6,5.19,7.43,6.41,2.94,1.96,6.14,3.53,9.48,4.66,3.22,1.1,6.59,1.79,9.98,2.04,4.05.29,6.54-.91,10.06-2.84,3.03-1.67,6.06-3.33,9.09-5,1.31-.72,2.63-1.28,4.01-1.86.76-.32,1.55-.65,2.38-.61.84.04,1.71.57,2.14,1.34.6,1.07.06,1.72-.55,2.63Z"/>
      <path class="cls-3" d="M50.87,23.98c.8.39,1.66.79,2.55.83.85.04,1.51.13,2.3.5.24.11.48.23.74.26.2.02.39,0,.59-.03,1.96-.21,3.86.59,5.82.47,2.01-.13,7.41-1.45,9.37-1.92,6.89-1.66,9.7-5.92,17.01-5.1,8.4.93,14.87,8.46,17.89,16.15,1.7,4.33,2.65,8.99,2.8,13.66.11,3.54.28,10-1.74,13.07,10.4-15.8,11.23-42.15-6.41-52.87-6.47-3.93-14.64-5.24-21.72-2.21-5.94,2.54-10.79,7.02-16.1,10.71-2.2,1.53-4.51,2.91-6.98,3.97-1.2.51-2.42.95-3.68,1.27-1.1.28-2.46.24-3.49.65.32.22.67.42,1.04.6Z"/>
      <path class="cls-1" d="M72.19,24.42c-1.98.76-4.03,1.33-6.16,1.53-4.01.38-8.08.09-11.99-.86-6.89-1.66-13.15-6.92-20.45-6.11-8.4.93-14.87,8.46-17.89,16.15-1.7,4.33-2.65,8.99-2.8,13.66-.11,3.54-.28,10,1.74,13.07C4.23,46.06,3.41,19.72,21.05,9c6.47-3.93,14.64-5.24,21.72-2.21,5.94,2.54,10.79,7.02,16.1,10.71,2.43,1.69,5,3.2,7.76,4.29,1.38.54,2.8.98,4.25,1.26.69.13,1.39.25,2.09.26.4,0,1.49.18,1.83.01-.85.4-1.72.77-2.6,1.11Z"/>
      <path class="cls-3" d="M14.64,61.87c.18.33,4.48,6.47,11.46,13.4,7.04,7,16.88,13.94,23.8,17.56,0,0-12.32-13.08-19.54-23.44-8.79-12.61-14.7-24.81-13.96-35.89,0,0-1.23,2.38-2.21,6.29-.61,2.45-1.05,5.68-1.28,8.75-.36,4.79-.06,10.02,1.73,13.33Z"/>
    </g>
    <path class="cls-2" d="M76.11,43.75h-6.64v-6.64c0-2.7-2.2-4.9-4.9-4.9s-4.89,2.2-4.89,4.9v6.64h-6.64c-2.7,0-4.9,2.2-4.9,4.89s2.2,4.9,4.9,4.9h6.64v6.64c0,2.7,2.2,4.89,4.89,4.89s4.9-2.2,4.9-4.89v-6.64h6.64c2.7,0,4.89-2.2,4.89-4.9s-2.2-4.89-4.89-4.89Z"/>
  </g>
  <text class="cls-4" transform="translate(124.87 65.27)"><tspan x="0" y="0">Wellness</tspan></text>
  <text class="cls-6" transform="translate(304.89 65.27)"><tspan class="cls-5" x="0" y="0">W</tspan><tspan x="57.59" y="0">onders</tspan></text>
</svg>