<?xml version="1.0" encoding="UTF-8"?>
<svg id="OBJECTS" xmlns="http://www.w3.org/2000/svg" viewBox="0 0 500 500">
  <defs>
    <style>
      .cls-1 {
        fill: #8686e2;
      }

      .cls-1, .cls-2 {
        stroke-miterlimit: 10;
      }

      .cls-1, .cls-2, .cls-3 {
        stroke: #1b3346;
      }

      .cls-2, .cls-3 {
        fill: #00c99e;
      }

      .cls-3 {
        stroke-linecap: round;
        stroke-linejoin: round;
      }
    </style>
  </defs>
  <g>
    <path class="cls-2" d="M332.22,338.48c-13.52,20.15-32.57,35.6-54.34,46.01,4.56-2.18,11.99-.63,16.96-.73,10.4-.2,19.76-.32,28.02-7.31,18.17-15.38,33.54-33.9,52.22-48.65,3.94-3.11,8.31-6.16,13.32-6.53,5.01-.37,10.62,3.05,10.82,8.07,3.26-2.3,6.64-4.65,10.53-5.55,3.89-.9,8.47,0,10.85,3.2,2.46,3.32,1.89,7.99.52,11.9-3.23,9.24-10.96,16.38-17.36,23.54-7.31,8.19-15.12,15.94-22.7,23.88-16.62,17.42-35.6,30.09-55.43,43.54-29.6,20.07-57.71,29.73-92.87,18.23-13.4-4.39-26.24-10.4-38.54-17.28-11.82-6.61-22.28-15.56-33.59-22.98-7.66-5.02-13.59-12.95-19.23-20.18-6-7.68-11.48-15.77-16.39-24.19-9.79-16.81-17.26-34.93-22.25-53.73,2.52,9.5,23.78,22.05,31.55,27.22,12.49,8.32,26.08,14.98,40.28,19.81,13.69,4.65,27.97,7.61,42.4,8.66,17.19,1.25,27.79-3.87,42.71-12.07,12.87-7.07,25.75-14.14,38.62-21.22,5.55-3.05,11.19-5.43,17.05-7.92,3.22-1.37,6.59-2.77,10.09-2.59,3.58.19,7.26,2.42,9.11,5.69,2.56,4.53.25,7.31-2.33,11.16Z"/>
    <path class="cls-1" d="M205.18,142.08c3.38,1.64,7.03,3.36,10.81,3.52,3.6.15,6.39.56,9.78,2.12,1.02.47,2.04.99,3.16,1.12.83.1,1.67-.04,2.51-.12,8.33-.88,16.4,2.51,24.72,1.98,8.52-.54,31.46-6.16,39.81-8.17,29.26-7.06,41.22-25.12,72.25-21.67,35.66,3.97,63.16,35.95,75.99,68.6,7.24,18.41,11.24,38.17,11.88,58.04.48,15.05,1.18,42.48-7.39,55.5,44.19-67.12,47.7-179.03-27.24-224.55-27.48-16.69-62.17-22.25-92.24-9.4-25.23,10.78-45.84,29.81-68.36,45.47-9.33,6.49-19.17,12.35-29.63,16.84-5.08,2.18-10.3,4.03-15.65,5.41-4.68,1.21-10.45,1.02-14.84,2.78,1.35.93,2.85,1.76,4.43,2.53Z"/>
    <path class="cls-2" d="M295.72,143.92c-8.41,3.23-17.12,5.67-26.16,6.52-17.01,1.59-34.3.37-50.91-3.64-29.26-7.06-55.84-29.4-86.87-25.95-35.66,3.97-63.16,35.95-75.99,68.6-7.24,18.41-11.24,38.17-11.88,58.04-.48,15.05-1.18,42.48,7.39,55.5C7.1,235.86,3.6,123.96,78.53,78.44c27.48-16.69,62.17-22.25,92.24-9.4,25.23,10.78,45.84,29.81,68.36,45.47,10.31,7.17,21.24,13.59,32.94,18.21,5.84,2.31,11.88,4.16,18.05,5.33,2.91.55,5.9,1.06,8.86,1.1,1.71.03,6.34.76,7.77.05-3.62,1.68-7.31,3.28-11.05,4.72Z"/>
    <path class="cls-1" d="M51.29,302.99c.75,1.38,19.04,27.47,48.66,56.91,29.9,29.72,71.68,59.2,101.07,74.57,0,0-52.32-55.57-82.99-99.55-37.33-53.55-62.42-105.39-59.27-152.45,0,0-5.21,10.09-9.37,26.72-2.6,10.4-4.45,24.12-5.44,37.18-1.55,20.36-.25,42.55,7.35,56.61Z"/>
  </g>
  <path class="cls-3" d="M312.36,226.04h-28.21v-28.21c0-11.47-9.33-20.79-20.79-20.79s-20.79,9.33-20.79,20.79v28.21h-28.21c-11.47,0-20.79,9.33-20.79,20.79s9.33,20.79,20.79,20.79h28.21v28.21c0,11.46,9.33,20.79,20.79,20.79s20.79-9.33,20.79-20.79v-28.21h28.21c11.46,0,20.79-9.33,20.79-20.79s-9.33-20.79-20.79-20.79Z"/>
</svg>